# xmcd
#
# Track frame offsets:
# 150
# 17106
# 32235
# 49572
# 62287
# 80182
# 95722
# 109415
# 122521
# 139225
# 156737
# 174420
#
# Disc length: 2461 seconds
#
#
# Revision: 0
# Processed by: cddbd v1.5.1PL2 Copyright (c) Steve Scherf et al.
# Submitted via: FreeRIP 2.941 
#
DISCID=a6099b0c
DTITLE=Blues Gang - Short and Tight
DYEAR=2005
DGENRE=Blues
TTITLE0=She's Looking Good
TTITLE1=Midnight Special
TTITLE2=Short and Tight
TTITLE3=Kansas City
TTITLE4=Blues Every Day
TTITLE5=Never Been To Spain
TTITLE6=Sweet Home Chicago
TTITLE7=Warm Up
TTITLE8=Let's Forget Our Troubles
TTITLE9=Fever
TTITLE10=The Joker
TTITLE11=Rock Me
EXTD=www.tonstudio-hirschfeld.de\n+49 9721 805 162
EXTT0=
EXTT1=
EXTT2=
EXTT3=
EXTT4=
EXTT5=
EXTT6=
EXTT7=
EXTT8=
EXTT9=
EXTT10=
EXTT11=
PLAYORDER=
